<?xml version="1.0" encoding="iso-8859-1"?>
<!-- Generator: Adobe Illustrator 16.0.0, SVG Export Plug-In . SVG Version: 6.00 Build 0)  -->
<!DOCTYPE svg PUBLIC "-//W3C//DTD SVG 1.1//EN" "http://www.w3.org/Graphics/SVG/1.1/DTD/svg11.dtd">
<svg version="1.1" id="Capa_1" xmlns="http://www.w3.org/2000/svg" xmlns:xlink="http://www.w3.org/1999/xlink" x="0px" y="0px"
	 width="95.172px" height="95.172px" viewBox="0 0 95.172 95.172" style="enable-background:new 0 0 95.172 95.172;"
	 xml:space="preserve">
<g>
	<path d="M93.104,0H2.069C0.926,0,0,0.927,0,2.069v91.035c0,1.142,0.927,2.068,2.069,2.068h91.033c1.144,0,2.069-0.927,2.069-2.068
		V2.069C95.172,0.927,94.246,0,93.104,0z M76.948,32.546L38.602,70.893c-0.24,0.239-0.555,0.359-0.869,0.359s-0.63-0.12-0.869-0.359
		L18.226,52.256c-0.23-0.23-0.36-0.543-0.36-0.869s0.13-0.639,0.36-0.869l6.542-6.542c0.461-0.461,1.277-0.461,1.738,0
		l11.227,11.226l30.936-30.936c0.461-0.461,1.277-0.461,1.738,0l6.541,6.542c0.23,0.23,0.361,0.543,0.361,0.869
		C77.309,32.003,77.178,32.315,76.948,32.546z"/>
</g>
<g>
</g>
<g>
</g>
<g>
</g>
<g>
</g>
<g>
</g>
<g>
</g>
<g>
</g>
<g>
</g>
<g>
</g>
<g>
</g>
<g>
</g>
<g>
</g>
<g>
</g>
<g>
</g>
<g>
</g>
</svg>
